<?xml version="1.0" encoding="UTF-8"?>
<!DOCTYPE svg PUBLIC "-//W3C//DTD SVG 1.1//EN" "http://www.w3.org/Graphics/SVG/1.1/DTD/svg11.dtd">
<!-- Creator: CorelDRAW 2021 (64-Bit) -->
<svg xmlns="http://www.w3.org/2000/svg" xml:space="preserve" width="20mm" height="20mm" version="1.1" style="shape-rendering:geometricPrecision; text-rendering:geometricPrecision; image-rendering:optimizeQuality; fill-rule:evenodd; clip-rule:evenodd"
viewBox="0 0 2000 2000"
 xmlns:xlink="http://www.w3.org/1999/xlink"
 xmlns:xodm="http://www.corel.com/coreldraw/odm/2003">
 <defs>
  <style type="text/css">
   <![CDATA[
    .fil0 {fill:#747474;fill-rule:nonzero}
   ]]>
  </style>
 </defs>
 <g id="Layer_x0020_1">
  <metadata id="CorelCorpID_0Corel-Layer"/>
  <path class="fil0" d="M1252.71 930.69c82.82,-4.11 146.77,-80.31 142.99,-170.34 -3.83,-90.08 -73.92,-159.6 -156.74,-155.49 -82.83,4.16 -146.82,80.36 -142.99,170.39 3.83,90.1 73.88,159.6 156.74,155.44zm224.63 469.57c-1.76,-41.96 -17.18,-81.94 -43.51,-112.75l-97.78 -114.62c-33.93,-35.37 -87.88,-32.61 -118.77,5.97l-176.82 222.58 -384.05 -514.33c-33.01,-44.31 -95.5,-43.87 -127.73,1.12l-300.19 429.92c-23.13,33.23 -34.93,74.17 -33.11,115.68l15.98 379.98 1280.77 -63.88 -14.79 -349.67zm-1317.96 475.52l1389.71 -69.34 -57.53 -1362.58 -1389.67 69.35 57.49 1362.57zm1441.24 -1437.32l57.77 1375.35c2.74,65.51 -43.81,120.95 -104.02,123.94l-1389.67 69.34c-60.21,2.98 -111.27,-47.63 -114.01,-113.09l-57.84 -1375.34c-2.74,-65.52 43.76,-120.96 103.98,-123.94l1389.76 -69.34c60.22,-2.98 111.23,47.56 114.03,113.08zm391.5 -143l-129.08 1351.05c-6.05,98.53 -60.53,110.28 -155.86,98.19l-1.45 -110.34 47.48 5.41 130.42 -1356.68 -1383.65 -157.18 -18.27 190.19 -110.23 5.51 20.01 -208.07c6.26,-65.12 59.85,-112.41 119.87,-105.67l1383.61 157.17c59.94,6.88 103.45,65.19 97.15,130.42z"/>
 </g>
</svg>
