<svg width="28" height="30" viewBox="0 0 28 30" fill="none" xmlns="http://www.w3.org/2000/svg">
<path d="M17.5908 0H9.34375V5.25492H17.5908V0Z" fill="#7F7F7F"/>
<path d="M17.8352 4.97217H9.09677C8.7715 4.97217 8.50781 5.19148 8.50781 5.46201V5.87049C8.50781 6.14102 8.7715 6.36033 9.09677 6.36033H17.8352C18.1604 6.36033 18.4241 6.14102 18.4241 5.87049V5.46201C18.4241 5.19148 18.1604 4.97217 17.8352 4.97217Z" fill="#7F7F7F"/>
<path fill-rule="evenodd" clip-rule="evenodd" d="M9.34503 6.36035H17.592L20.6949 9.86867H6.24219L9.34503 6.36035Z" fill="#7F7F7F"/>
<path d="M20.9308 9.58643H6.00126C5.70932 9.58643 5.47266 9.75249 5.47266 9.95735V11.1036C5.47266 11.3084 5.70932 11.4745 6.00126 11.4745H20.9308C21.2228 11.4745 21.4594 11.3084 21.4594 11.1036V9.95735C21.4594 9.75249 21.2228 9.58643 20.9308 9.58643Z" fill="#7F7F7F"/>
<path fill-rule="evenodd" clip-rule="evenodd" d="M0.699219 12.0396H26.3341V27.7286H0.699219V12.0396ZM6.77062 16.3828H20.2627V23.3854H6.77062V16.3828Z" fill="#7F7F7F"/>
<path d="M27.0356 27.5874H0V29.8754H27.0356V27.5874Z" fill="#7F7F7F"/>
</svg>
