<svg width="29" height="33" viewBox="0 0 29 33" fill="none" xmlns="http://www.w3.org/2000/svg">
<path d="M14.4375 16.5C16.6255 16.5 18.724 15.6308 20.2711 14.0836C21.8183 12.5365 22.6875 10.438 22.6875 8.25C22.6875 6.06196 21.8183 3.96354 20.2711 2.41637C18.724 0.869194 16.6255 0 14.4375 0C12.2495 0 10.151 0.869194 8.60387 2.41637C7.05669 3.96354 6.1875 6.06196 6.1875 8.25C6.1875 10.438 7.05669 12.5365 8.60387 14.0836C10.151 15.6308 12.2495 16.5 14.4375 16.5ZM11.492 19.5938C5.14336 19.5938 0 24.7371 0 31.0857C0 32.1428 0.857227 33 1.91426 33H26.9607C28.0178 33 28.875 32.1428 28.875 31.0857C28.875 24.7371 23.7316 19.5938 17.383 19.5938H11.492Z" fill="white"/>
</svg>
